<svg width="40" height="40" viewBox="0 0 24 24" fill="none" xmlns="http://www.w3.org/2000/svg">
  <path d="M12 2C6.48 2 2 6.48 2 12C2 17.52 6.48 22 12 22C17.52 22 22 17.52 22 12C22 6.48 17.52 2 12 2ZM6 14C5.45 14 5 13.55 5 13C5 12.45 5.45 12 6 12C6.55 12 7 12.45 7 13C7 13.55 6.55 14 6 14ZM9 8C9 7.45 9.45 7 10 7C10.55 7 11 7.45 11 8C11 8.55 10.55 9 10 9C9.45 9 9 8.55 9 8ZM16 8C15.45 8 15 7.55 15 7C15 6.45 15.45 6 16 6C16.55 6 17 6.45 17 7C17 7.55 16.55 8 16 8ZM18 14C17.45 14 17 13.55 17 13C17 12.45 17.45 12 18 12C18.55 12 19 12.45 19 13C19 13.55 18.55 14 18 14Z" fill="url(#paint0_linear)" />
  <defs>
    <linearGradient id="paint0_linear" x1="2" y1="12" x2="22" y2="12" gradientUnits="userSpaceOnUse">
      <stop stopColor="#a855f7" />
      <stop offset="1" stopColor="#3b82f6" />
    </linearGradient>
  </defs>
</svg>