<svg xmlns="http://www.w3.org/2000/svg" version="1.1" xmlns:xlink="http://www.w3.org/1999/xlink" xmlns:svgjs="http://svgjs.dev/svgjs" width="256" height="256"><svg t="1738990881153" class="icon" viewBox="0 0 1024 1024" version="1.1" xmlns="http://www.w3.org/2000/svg" p-id="6188" xmlns:xlink="http://www.w3.org/1999/xlink" width="256" height="256"><path d="M304.13353 662.035241c0 0.635137-0.047635 1.270274-0.047636 1.905412 0 144.509587 84.076284 269.075867 205.339851 326.389058a350.103493 350.103493 0 0 1-150.059098 33.66227c-196.289146 0-355.406888-161.205756-355.406888-360.059268 0-116.190408 54.367743-219.455775 138.682203-285.287743a360.622952 360.622952 0 0 0 161.491568 283.390271z" fill="#009CBD" p-id="6189"></path><path d="M1014.891732 663.948592c0 198.853512-159.117742 360.059268-355.406889 360.059268A350.079675 350.079675 0 0 1 509.425745 990.345589c121.263566-57.321131 205.339851-181.879471 205.339851-326.389058 0-6.248162-0.158784-12.43281-0.468414-18.60158 83.853986-65.474704 138.039127-167.977906 138.626629-283.382332 97.477679 64.188551 161.96792 175.41695 161.967921 301.975973z" fill="#E22B2E" p-id="6190"></path><path d="M304.085894 663.948592c0-0.635137 0.047635-1.270274 0.047636-1.905412 55.685652 36.687111 122.081305 58.075356 193.446907 58.075356 81.607189 0 156.728039-27.938097 216.724684-74.771524 0.325508 6.160831 0.476353 12.369297 0.476353 18.60158 0 144.509587-84.084224 269.075867-205.339851 326.389058-121.279445-57.32907-205.355729-181.88741-205.355729-326.389058z" fill="#F57826" p-id="6191"></path><path d="M509.425745 337.543655a350.103493 350.103493 0 0 0-150.059098-33.662271c-81.607189 0-156.720099 27.930158-216.724685 74.771525a380.129603 380.129603 0 0 1-0.468414-18.593641C142.173548 161.205756 301.283352 0 497.580437 0c196.305024 0 355.414827 161.197817 355.414827 360.059268 0 0.635137-0.047635 1.262335-0.047635 1.897472-55.685652-36.687111-122.081305-58.075356-193.454846-58.075356A350.119371 350.119371 0 0 0 509.425745 337.543655z" fill="#00B199" p-id="6192"></path><path d="M509.425745 337.543655c-120.739578 57.067076-204.569747 180.791799-205.292215 324.499525a360.630892 360.630892 0 0 1-161.491568-283.374392c60.004585-46.841367 135.117496-74.771525 216.724685-74.771525A349.865316 349.865316 0 0 1 509.425745 337.543655z" fill="#68DBEF" p-id="6193"></path><path d="M714.305121 645.339072c-6.859482-136.554494-88.831874-252.951322-204.879376-307.803356a350.103493 350.103493 0 0 1 150.059098-33.662271c71.373541 0 137.777133 21.388245 193.438968 58.075356-0.587502 115.412365-54.772643 217.915567-138.61869 283.390271z" fill="#FDDF68" p-id="6194"></path><path d="M304.13353 662.035241c0.722469-143.699787 84.552637-267.42451 205.292215-324.491586 116.039563 54.852035 198.004016 171.248863 204.879376 307.803357-59.996646 46.833428-135.117496 74.771525-216.724684 74.771524a350.214642 350.214642 0 0 1-193.446907-58.083295z" fill="#FFFFFF" p-id="6195"></path></svg><style>@media (prefers-color-scheme: light) { :root { filter: none; } }
@media (prefers-color-scheme: dark) { :root { filter: none; } }
</style></svg>